<svg version="1" xmlns="http://www.w3.org/2000/svg" width="933.333" height="933.333" viewBox="0 0 700.000000 700.000000"><path d="M45.5 1C25.1 5.1 9.4 19.3 2.4 40 .6 45.3.5 55.1.5 350s.1 304.7 1.9 310c6.4 18.8 18.8 31.2 37.6 37.6 5.3 1.8 15.1 1.9 310 1.9s304.7-.1 310-1.9c18.8-6.4 31.2-18.8 37.6-37.6 1.8-5.3 1.9-15.1 1.9-310s-.1-304.7-1.9-310c-3.1-9.2-7.7-16.9-13.7-23-6.4-6.5-12.1-10.1-21.8-13.9L655.5.5l-303-.1C185.8.3 47.7.6 45.5 1zM381 58.4c33.4 5.5 59.1 16.6 83.7 36.2 20.5 16.4 34.9 37.3 43.7 63.7 5 14.8 7.7 31.8 8.5 53.2 1.1 28-1 46.5-7.6 68.5-12.2 40.7-37.9 69.5-77.9 87.8-20.4 9.3-42.8 15.2-65.7 17.2-6.2.5-39.4 1-73.9 1H229v165h-67V325.2l83.3-.5c68.2-.4 85.3-.8 94.7-2.1 25.4-3.5 43.9-8 54.5-13.4 29.1-14.6 46.2-44.4 48.2-83.8 1-18.3-2.3-35.2-10.2-52-9.1-19.6-21-32.2-37.9-40.4-5.6-2.6-12.3-5.3-15.1-5.9-4.1-.9-198.4-9.2-213.2-9.1H162V87.7c0-16.7.3-30.7.7-31.1.5-.4 47.4-.6 104.3-.3 91.8.3 104.7.6 114 2.1zM229 221.5V298h-67V145h67v76.5zm199.4 182.1c1.6.6 21.9 29.3 40.3 56.9 5.5 8.2 32.7 51.4 60.6 96 27.9 44.5 51.6 82.5 52.8 84.2l2.1 3.3h-40.5c-39.3 0-40.5-.1-43-2.1-1.5-1.1-27.4-43.3-57.7-93.7-30.3-50.5-58.6-96.6-63-102.5-4.4-5.9-12.8-15.5-18.6-21.2l-10.5-10.4 3.3-.5c1.8-.3 9.4-1 16.8-1.6 15.2-1.3 32.8-4.1 44-6.9 8.2-2.1 11-2.4 13.4-1.5zM229 611.5V644h-67v-65h67v32.5z"/></svg>