<svg xmlns="http://www.w3.org/2000/svg" viewBox="80 0 100 420.3">
	<title>riddlebit_logo</title>
	<g fill="#fff">
		<path d="M374.16,334.85V291.29c1.57-.1,3-.28,4.45-.28,45,0,90-.61,135,.23,25.12.47,49,7.43,70,21.87,25.09,17.23,38.75,41.54,42.82,71.39,2.79,20.46,2.53,40.9-2.47,61-8.23,33.18-28.68,56-59.86,69.46-19.22,8.27-39.49,11.7-60.32,11.82-25.16.14-50.33,0-75.49,0h-6v118h-48V482.87h6.06c34.5,0,69,.56,103.49-.27a200.32,200.32,0,0,0,42.8-5.86c24.6-6.06,39.51-22.57,45.61-47.2,5.5-22.21,2.82-43.15-8.93-62.85-8-13.48-20.34-21.65-35-25.51a147.1,147.1,0,0,0-33.39-5c-38.63-.92-77.27-.94-115.91-1.3C377.5,334.84,376,334.85,374.16,334.85Z" transform="translate(-374.16 -290.79)"/>
		<path d="M675.83,711H649.62c-9.66,0-19.32-.17-29,.09-3.49.09-5.22-1.17-7-4.1q-37.3-62.55-74.93-124.92c-8-13.21-17.55-25.31-30.26-35.54,9.35-.82,17.91-1.22,26.37-2.42a208.07,208.07,0,0,0,24.86-5c3.42-.92,5.33-.42,7.13,2.21,10.34,15.09,21.14,29.87,30.93,45.3,25.12,39.61,49.78,79.51,74.63,119.29C673.29,707.28,674.24,708.63,675.83,711Z" transform="translate(-374.16 -290.79)"/>
		<path d="M374.4,354.18h47.44V463.56H374.4Z" transform="translate(-374.16 -290.79)"/><path d="M422,664.46v46.18H374.38V664.46Z" transform="translate(-374.16 -290.79)"/>
	</g>
</svg>